<?xml version="1.0" encoding="UTF-8"?>
<svg xmlns="http://www.w3.org/2000/svg" width="516.000" height="555.000" viewBox="0 0 516.000 555.000">
  <path d="M 180.000,489.000 L 168.000,507.000 L 186.000,525.000 L 204.000,543.000 L 216.000,555.000 L 234.000,510.000 L 291.000,459.000 L 276.000,384.000 L 246.000,345.000 L 309.000,330.000 L 321.000,348.000 L 348.000,423.000 L 396.000,411.000 L 444.000,405.000 L 468.000,363.000 L 446.471,352.235 L 432.000,345.000 L 408.000,333.000 L 393.000,357.000 L 372.000,357.000 L 366.000,324.000 L 360.000,300.000 L 366.000,288.000 L 369.000,279.000 L 450.000,309.000 L 513.000,261.000 L 513.000,252.000 L 516.000,234.000 L 444.000,162.000 L 348.000,189.000 L 333.000,177.000 L 324.000,171.000 L 315.000,93.000 L 381.000,39.000 L 375.000,30.000 L 366.000,21.000 L 356.769,18.692 L 342.000,15.000 L 330.000,9.000 L 312.000,0.000 L 303.000,21.000 L 312.000,45.000 L 258.000,84.000 L 270.000,99.000 L 270.000,114.000 L 276.000,150.000 L 279.000,168.000 L 228.000,237.000 L 243.000,168.000 L 216.000,111.000 L 186.000,93.000 L 126.000,117.000 L 96.000,108.000 L 54.000,141.000 L 94.714,166.714 L 111.000,177.000 L 171.000,147.000 L 180.000,201.000 L 156.000,222.000 L 147.000,285.000 L 117.000,303.000 L 54.000,297.000 L 0.000,249.000 L 36.000,327.000 L 54.000,336.000 L 87.000,348.000 L 99.000,354.000 L 120.000,354.000 L 168.000,354.000 L 198.000,393.000 L 231.000,429.000 Z" fill="#444" stroke="#000" stroke-width="1"/>
</svg>
