<?xml version='1.0' encoding='ascii'?>
<svg xmlns="http://www.w3.org/2000/svg" height="1024" version="1.1" width="1024" data-p3-pivots="775.058000,607.206000 475.518000,189.829000 262.617000,657.904000">
    <g id="View Layer_LineSet" inkscape:groupmode="lineset" inkscape:label="View Layer_LineSet" xmlns:inkscape="http://www.inkscape.org/namespaces/inkscape">
        <g id="strokes" inkscape:groupmode="layer" inkscape:label="strokes" xmlns:inkscape="http://www.inkscape.org/namespaces/inkscape">
            <path d=" M 442.070, 340.722 432.921, 344.760 423.773, 348.798 417.478, 351.576 409.221, 357.217 404.587, 360.382 395.140, 357.103 385.693, 353.824 376.246, 350.545 366.799, 347.266 357.352, 343.987 347.905, 340.708 338.457, 337.429 329.010, 334.150 319.563, 330.871 310.116, 327.592 300.669, 324.313 290.628, 320.828 288.368, 311.087 286.109, 301.345 283.849, 291.604 281.590, 281.862 279.330, 272.121 277.070, 262.380 274.811, 252.638 272.551, 242.897 270.292, 233.155 268.033, 223.414 265.773, 213.673 263.513, 203.931 261.254, 194.190 260.306, 190.104 250.317, 190.560 246.990, 190.712 237.312, 193.229 227.633, 195.745 223.800, 196.742 217.255, 204.303 210.711, 211.864 204.166, 219.425 198.553, 225.909 190.895, 232.339 183.236, 238.769 175.577, 245.199 167.918, 251.628 160.260, 258.058 159.248, 258.907 165.236, 266.917 171.223, 274.926 177.211, 282.936 181.184, 288.251 191.182, 288.465 201.179, 288.678 211.177, 288.892 221.175, 289.105 222.615, 289.136 224.015, 299.038 225.415, 308.939 226.815, 318.841 228.215, 328.742 229.615, 338.644 231.014, 348.545 232.414, 358.447 233.814, 368.348 235.214, 378.250 236.573, 387.864 246.519, 386.829 256.466, 385.794 263.971, 385.013 272.842, 389.628 281.713, 394.244 284.638, 395.766 294.311, 398.304 303.983, 400.843 313.656, 403.382 323.328, 405.921 333.000, 408.460 336.832, 409.466 346.038, 413.372 355.243, 417.279 363.659, 420.850 368.543, 429.576 373.427, 438.302 378.311, 447.028 383.196, 455.754 388.080, 464.480 392.964, 473.206 397.849, 481.932 402.733, 490.658 407.617, 499.384 412.501, 508.110 413.443, 509.793 405.897, 516.354 399.567, 521.858 391.986, 515.336 384.406, 508.814 376.826, 502.292 369.245, 495.770 361.665, 489.248 354.084, 482.726 346.504, 476.204 341.030, 471.494 331.034, 471.214 321.037, 470.935 311.041, 470.655 301.045, 470.376 291.049, 470.096 281.053, 469.817 271.057, 469.537 261.061, 469.258 251.065, 468.978 243.639, 468.771 234.987, 473.784 226.334, 478.797 217.682, 483.811 209.029, 488.824 200.376, 493.837 198.399, 494.983 197.538, 504.946 196.678, 514.909 195.818, 524.872 194.958, 534.835 194.097, 544.798 193.237, 554.761 192.377, 564.724 191.517, 574.687 190.656, 584.650 189.876, 593.682 183.009, 600.950 176.141, 608.219 169.273, 615.488 162.405, 622.756 156.713, 628.780 158.174, 638.673 159.636, 648.565 161.097, 658.458 162.558, 668.351 164.019, 678.243 165.481, 688.136 166.942, 698.029 167.868, 704.301 175.481, 708.601 184.125, 703.572 192.768, 698.543 201.412, 693.514 210.055, 688.485 218.699, 683.457 227.342, 678.428 235.986, 673.399 244.629, 668.370 253.273, 663.341 262.617, 657.904 262.567, 647.904 262.517, 637.904 262.468, 627.905 262.418, 617.905 262.368, 607.905 262.318, 597.905 262.268, 587.905 262.218, 577.905 262.168, 567.905 262.118, 557.905 262.110, 556.274 270.506, 550.843 270.695, 550.721 280.025, 554.320 289.354, 557.920 298.684, 561.520 308.014, 565.119 317.343, 568.719 326.673, 572.318 336.003, 575.918 343.624, 578.858 346.543, 588.423 349.462, 597.987 352.382, 607.551 355.301, 617.116 357.802, 625.310 365.982, 631.062 374.163, 636.814 382.343, 642.566 390.523, 648.318 398.703, 654.070 406.883, 659.822 415.063, 665.574 423.243, 671.326 431.423, 677.078 439.203, 682.548 439.269, 692.548 439.335, 702.548 439.400, 712.548 439.466, 722.548 439.531, 732.547 439.554, 735.993 434.273, 744.485 428.993, 752.977 423.713, 761.469 418.432, 769.961 413.152, 778.454 407.872, 786.946 402.591, 795.438 397.311, 803.930 392.031, 812.423 387.027, 820.470 377.597, 823.800 368.168, 827.131 358.739, 830.461 349.310, 833.791 339.880, 837.121 330.451, 840.451 321.022, 843.781 315.520, 845.724 317.595, 855.506 318.571, 860.106 328.569, 860.285 338.568, 860.465 348.566, 860.644 358.564, 860.823 368.563, 861.003 378.561, 861.182 388.560, 861.361 398.558, 861.541 408.556, 861.720 418.193, 861.893 426.187, 855.885 434.181, 849.878 440.755, 844.938 447.839, 837.879 454.923, 830.821 462.006, 823.762 469.090, 816.704 476.173, 809.645 478.996, 806.833 487.336, 801.314 495.675, 795.796 498.291, 794.064 502.320, 784.911 506.348, 775.759 509.744, 768.043 514.333, 759.158 518.922, 750.273 523.512, 741.388 528.101, 732.504 532.690, 723.619 537.279, 714.734 541.868, 705.849 546.260, 697.346 556.162, 695.948 566.064, 694.549 575.966, 693.150 585.867, 691.752 595.769, 690.353 605.671, 688.955 615.573, 687.556 618.868, 687.091 628.411, 684.102 637.953, 681.113 647.496, 678.124 657.039, 675.135 666.582, 672.146 676.125, 669.157 685.668, 666.168 694.389, 663.437 698.346, 672.620 702.304, 681.804 706.261, 690.987 710.219, 700.171 714.177, 709.355 718.134, 718.538 722.092, 727.722 726.049, 736.905 730.007, 746.089 733.964, 755.272 737.922, 764.456 741.880, 773.639 743.084, 776.433 747.780, 785.262 752.477, 794.090 757.174, 802.918 758.667, 805.724 768.229, 802.797 777.791, 799.869 787.352, 796.941 796.914, 794.014 806.476, 791.086 816.038, 788.158 825.600, 785.231 835.162, 782.303 844.723, 779.375 851.789, 777.212 853.532, 769.097 846.683, 761.811 839.834, 754.525 832.985, 747.238 826.135, 739.952 819.286, 732.666 812.437, 725.380 806.976, 719.571 804.244, 709.952 801.511, 700.332 798.779, 690.713 796.046, 681.093 793.314, 671.474 790.581, 661.855 787.849, 652.235 785.116, 642.616 782.384, 632.996 779.651, 623.377 776.919, 613.757 775.058, 607.206 765.364, 604.750 755.670, 602.294 745.977, 599.839 736.283, 597.383 726.589, 594.927 716.895, 592.471 707.202, 590.015 697.508, 587.559 687.814, 585.103 678.120, 582.647 668.427, 580.191 662.364, 578.655 652.599, 580.810 642.834, 582.965 633.069, 585.120 623.304, 587.275 613.539, 589.430 603.774, 591.585 593.748, 593.797 587.348, 587.446 589.577, 577.698 591.806, 567.949 594.035, 558.201 596.264, 548.452 598.493, 538.704 600.722, 528.956 602.951, 519.207 605.180, 509.459 607.409, 499.710 609.751, 489.468 619.747, 489.762 629.742, 490.056 639.738, 490.350 643.948, 490.474 653.876, 491.669 663.804, 492.865 673.733, 494.060 683.661, 495.255 693.589, 496.450 703.518, 497.645 713.446, 498.841 723.374, 500.036 733.302, 501.231 743.231, 502.426 753.159, 503.622 763.087, 504.817 765.154, 505.066 767.332, 495.306 769.510, 485.546 771.688, 475.786 773.866, 466.026 776.044, 456.266 778.222, 446.506 780.400, 436.746 782.053, 429.339 785.728, 420.039 789.404, 410.739 793.080, 401.439 796.756, 392.139 800.432, 382.839 804.108, 373.539 807.783, 364.239 808.776, 361.728 803.389, 353.303 798.003, 344.878 792.616, 336.452 787.229, 328.027 781.843, 319.602 776.456, 311.177 771.070, 302.751 766.942, 296.295 759.064, 302.454 751.186, 308.614 743.308, 314.773 735.429, 320.932 727.551, 327.091 719.673, 333.250 711.795, 339.409 703.917, 345.568 696.038, 351.727 689.524, 356.820 694.303, 365.604 699.081, 374.389 703.859, 383.173 708.637, 391.958 708.922, 392.482 705.028, 401.693 701.135, 410.904 697.241, 420.114 693.756, 428.359 684.351, 424.960 674.947, 421.561 665.542, 418.162 656.137, 414.763 646.733, 411.364 643.971, 410.366 634.145, 408.508 624.319, 406.651 614.493, 404.793 605.616, 403.115 598.604, 395.985 591.592, 388.855 588.445, 385.655 582.976, 377.283 580.097, 372.876 587.384, 366.028 594.671, 359.180 601.959, 352.332 609.246, 345.484 616.533, 338.636 623.820, 331.788 631.108, 324.940 638.395, 318.092 645.682, 311.244 652.970, 304.396 660.257, 297.548 667.544, 290.700 674.831, 283.852 678.085, 280.794 676.260, 270.962 674.436, 261.130 672.612, 251.298 670.787, 241.466 668.963, 231.633 667.138, 221.801 665.314, 211.969 663.490, 202.137 661.665, 192.305 659.841, 182.473 658.017, 172.640 656.486, 164.393 647.450, 160.110 642.928, 157.966 634.809, 152.128 626.690, 146.291 621.867, 142.823 612.346, 145.881 602.825, 148.939 593.304, 151.997 583.783, 155.055 574.262, 158.113 564.741, 161.171 555.220, 164.229 545.699, 167.288 536.179, 170.346 526.658, 173.404 517.137, 176.462 507.616, 179.520 498.095, 182.578 488.574, 185.636 479.053, 188.694 475.518, 189.829 473.354, 199.592 471.190, 209.355 469.025, 219.118 466.861, 228.881 464.697, 238.644 462.533, 248.407 460.369, 258.170 458.205, 267.933 456.041, 277.696 453.876, 287.459 451.712, 297.222 449.548, 306.985 447.384, 316.748 445.220, 326.511 443.056, 336.274 442.070, 340.722 " fill="none" stroke="rgb(0, 0, 0)" stroke-linecap="butt" stroke-linejoin="miter" stroke-opacity="1.0" stroke-width="3.0" />
        </g>
    </g>
</svg>
