<?xml version="1.0" encoding="UTF-8"?>
<svg xmlns="http://www.w3.org/2000/svg" width="220.801" height="218.205" viewBox="0 0 220.801 218.205" data-p3-pivots="204.820508,96.602540 54.820508,183.205081 54.820508,10.000000">
  <path d="M 204.821,96.603 L 168.840,98.923 L 200.311,134.413 L 142.679,124.234 L 178.481,162.224 L 140.670,157.715 L 154.821,183.205 L 129.821,213.205 L 104.821,163.205 L 79.821,218.205 L 54.821,183.205 L 72.631,144.054 L 12.500,149.904 L 43.301,103.253 L 4.821,96.603 L 0.000,64.952 L 35.981,62.631 L 5.179,15.981 L 54.821,10.000 L 84.821,50.000 L 109.821,0.000 L 129.821,30.000 L 154.821,10.000 L 183.971,10.490 L 161.160,40.981 L 211.962,28.971 L 174.330,73.792 L 220.801,64.282 Z" fill="#6ae3ff" fill-opacity="0.35" stroke="#000" stroke-width="1.5"/>
  <circle cx="204.821" cy="96.603" r="3" fill="red"/>
  <circle cx="54.821" cy="183.205" r="3" fill="red"/>
  <circle cx="54.821" cy="10.000" r="3" fill="red"/>
</svg>
